# xmcd
#
# Track frame offsets: 
#        150
#        16030
#        28140
#        42215
#        56585
#        72965
#        88885
#        102062
#        113170
#        125820
#        139940
#        155600
#        168640
#        181817
#        196787
#        209502
#        223405
#        235670
#        248397
#        262982
#        275290
#        288532
#
# Disc length: 4039 seconds
#
# Revision: 6
# Processed by: cddbd v1.5.2PL0 Copyright (c) Steve Scherf et al.
# Submitted via: ExactAudioCopy v0.99pb5
#
DISCID=420fc516
DTITLE=Fats Waller and his Rhythm - The Early Years, Part 2 (1935-36) 
DTITLE=Disk 1
DYEAR=1995
DGENRE=Jazz
TTITLE0=I'm Gonna Sit Right Down And Write Myself A Letter
TTITLE1=Hate To Talk About Myself
TTITLE2=Dinah
TTITLE3=Take It Easy
TTITLE4=You're The Picture
TTITLE5=My Very Good Friend The Milkman
TTITLE6=Blue Because Of You
TTITLE7=There's Going To Be The Devil To Pay
TTITLE8=Twelfth Street Rag
TTITLE9=There'll Be Some Changes Made
TTITLE10=Somebody Stole My Gal
TTITLE11=Sweet Sue - Just You (Take 1)
TTITLE12=Sweet Sue - Just You (Take 2)
TTITLE13=Truckin'
TTITLE14=Sugar Blues
TTITLE15=As Long As The World Goes Round And Round
TTITLE16=Georgia Rockin' Chair
TTITLE17=Brother Seek And Ye Shall Find
TTITLE18=The Girl I Left Behind Me
TTITLE19=You're So Darn Charming
TTITLE20=Woe! Is Me
TTITLE21=Rhythm And Romance
EXTD=YEAR: 1995
EXTT0=
EXTT1=
EXTT2=
EXTT3=
EXTT4=
EXTT5=
EXTT6=
EXTT7=
EXTT8=
EXTT9=
EXTT10=
EXTT11=
EXTT12=
EXTT13=
EXTT14=
EXTT15=
EXTT16=
EXTT17=
EXTT18=
EXTT19=
EXTT20=
EXTT21=
PLAYORDER=
